<mxfile host="app.diagrams.net" modified="2023-10-07T13:04:28.824Z" agent="Mozilla/5.0 (Windows NT 10.0; Win64; x64) AppleWebKit/537.36 (KHTML, like Gecko) Chrome/117.0.0.0 Safari/537.36" etag="BKLQNYS4fqmNcEAlAX8k" version="21.7.1" type="device">
  <diagram name="Page-1" id="Cvlc8NQGZsBmAlX8Su6M">
    <mxGraphModel dx="993" dy="540" grid="1" gridSize="10" guides="1" tooltips="1" connect="1" arrows="1" fold="1" page="1" pageScale="1" pageWidth="850" pageHeight="1100" math="0" shadow="0">
      <root>
        <mxCell id="0" />
        <mxCell id="1" parent="0" />
        <mxCell id="YXdTX77VMhVec7Iuwk8Y-1" value="NEW" style="ellipse;whiteSpace=wrap;html=1;" vertex="1" parent="1">
          <mxGeometry x="120" y="180" width="120" height="80" as="geometry" />
        </mxCell>
        <mxCell id="YXdTX77VMhVec7Iuwk8Y-2" value="FAILED" style="ellipse;whiteSpace=wrap;html=1;" vertex="1" parent="1">
          <mxGeometry x="590" y="20" width="120" height="80" as="geometry" />
        </mxCell>
        <mxCell id="YXdTX77VMhVec7Iuwk8Y-3" value="SUCCESS" style="ellipse;whiteSpace=wrap;html=1;" vertex="1" parent="1">
          <mxGeometry x="590" y="180" width="120" height="80" as="geometry" />
        </mxCell>
        <mxCell id="YXdTX77VMhVec7Iuwk8Y-4" value="CANCELLED" style="ellipse;whiteSpace=wrap;html=1;" vertex="1" parent="1">
          <mxGeometry x="590" y="340" width="120" height="80" as="geometry" />
        </mxCell>
        <mxCell id="YXdTX77VMhVec7Iuwk8Y-9" style="edgeStyle=orthogonalEdgeStyle;rounded=0;orthogonalLoop=1;jettySize=auto;html=1;exitX=1;exitY=0.5;exitDx=0;exitDy=0;entryX=0;entryY=0.5;entryDx=0;entryDy=0;" edge="1" parent="1" source="YXdTX77VMhVec7Iuwk8Y-6" target="YXdTX77VMhVec7Iuwk8Y-3">
          <mxGeometry relative="1" as="geometry" />
        </mxCell>
        <mxCell id="YXdTX77VMhVec7Iuwk8Y-6" value="PENDING" style="ellipse;whiteSpace=wrap;html=1;" vertex="1" parent="1">
          <mxGeometry x="360" y="180" width="120" height="80" as="geometry" />
        </mxCell>
        <mxCell id="YXdTX77VMhVec7Iuwk8Y-7" value="" style="endArrow=classic;html=1;rounded=0;exitX=1;exitY=0.5;exitDx=0;exitDy=0;entryX=0;entryY=0.5;entryDx=0;entryDy=0;" edge="1" parent="1" source="YXdTX77VMhVec7Iuwk8Y-1" target="YXdTX77VMhVec7Iuwk8Y-6">
          <mxGeometry width="50" height="50" relative="1" as="geometry">
            <mxPoint x="390" y="270" as="sourcePoint" />
            <mxPoint x="440" y="220" as="targetPoint" />
          </mxGeometry>
        </mxCell>
        <mxCell id="YXdTX77VMhVec7Iuwk8Y-8" value="Initiated" style="text;html=1;align=center;verticalAlign=middle;resizable=0;points=[];autosize=1;strokeColor=none;fillColor=none;" vertex="1" parent="1">
          <mxGeometry x="260" y="198" width="70" height="30" as="geometry" />
        </mxCell>
        <mxCell id="YXdTX77VMhVec7Iuwk8Y-10" value="Complete" style="text;html=1;align=center;verticalAlign=middle;resizable=0;points=[];autosize=1;strokeColor=none;fillColor=none;" vertex="1" parent="1">
          <mxGeometry x="490" y="198" width="70" height="30" as="geometry" />
        </mxCell>
        <mxCell id="YXdTX77VMhVec7Iuwk8Y-12" value="" style="endArrow=classic;html=1;rounded=0;entryX=0;entryY=0.5;entryDx=0;entryDy=0;exitX=1;exitY=0;exitDx=0;exitDy=0;" edge="1" parent="1" source="YXdTX77VMhVec7Iuwk8Y-6" target="YXdTX77VMhVec7Iuwk8Y-2">
          <mxGeometry width="50" height="50" relative="1" as="geometry">
            <mxPoint x="390" y="270" as="sourcePoint" />
            <mxPoint x="440" y="220" as="targetPoint" />
          </mxGeometry>
        </mxCell>
        <mxCell id="YXdTX77VMhVec7Iuwk8Y-14" value="rollback" style="text;html=1;align=center;verticalAlign=middle;resizable=0;points=[];autosize=1;strokeColor=none;fillColor=none;" vertex="1" parent="1">
          <mxGeometry x="495" y="110" width="60" height="30" as="geometry" />
        </mxCell>
        <mxCell id="YXdTX77VMhVec7Iuwk8Y-15" value="rollback" style="text;html=1;align=center;verticalAlign=middle;resizable=0;points=[];autosize=1;strokeColor=none;fillColor=none;" vertex="1" parent="1">
          <mxGeometry x="505" y="300" width="60" height="30" as="geometry" />
        </mxCell>
        <mxCell id="YXdTX77VMhVec7Iuwk8Y-18" value="" style="curved=1;endArrow=classic;html=1;rounded=0;exitX=0;exitY=0;exitDx=0;exitDy=0;" edge="1" parent="1" source="YXdTX77VMhVec7Iuwk8Y-6">
          <mxGeometry width="50" height="50" relative="1" as="geometry">
            <mxPoint x="390" y="270" as="sourcePoint" />
            <mxPoint x="440" y="180" as="targetPoint" />
            <Array as="points">
              <mxPoint x="320" y="150" />
              <mxPoint x="320" y="70" />
              <mxPoint x="550" y="80" />
            </Array>
          </mxGeometry>
        </mxCell>
        <mxCell id="YXdTX77VMhVec7Iuwk8Y-19" value="Processing" style="text;html=1;align=center;verticalAlign=middle;resizable=0;points=[];autosize=1;strokeColor=none;fillColor=none;" vertex="1" parent="1">
          <mxGeometry x="360" y="68" width="80" height="30" as="geometry" />
        </mxCell>
        <mxCell id="YXdTX77VMhVec7Iuwk8Y-21" value="Transaction Event" style="text;html=1;strokeColor=none;fillColor=none;align=center;verticalAlign=middle;whiteSpace=wrap;rounded=0;" vertex="1" parent="1">
          <mxGeometry x="20" y="20" width="60" height="30" as="geometry" />
        </mxCell>
        <mxCell id="YXdTX77VMhVec7Iuwk8Y-22" value="NEW" style="ellipse;whiteSpace=wrap;html=1;" vertex="1" parent="1">
          <mxGeometry x="80" y="660" width="120" height="80" as="geometry" />
        </mxCell>
        <mxCell id="YXdTX77VMhVec7Iuwk8Y-23" value="FAILED" style="ellipse;whiteSpace=wrap;html=1;" vertex="1" parent="1">
          <mxGeometry x="550" y="500" width="120" height="80" as="geometry" />
        </mxCell>
        <mxCell id="YXdTX77VMhVec7Iuwk8Y-24" value="SUCCESS" style="ellipse;whiteSpace=wrap;html=1;" vertex="1" parent="1">
          <mxGeometry x="550" y="660" width="120" height="80" as="geometry" />
        </mxCell>
        <mxCell id="YXdTX77VMhVec7Iuwk8Y-25" value="CANCELLED" style="ellipse;whiteSpace=wrap;html=1;" vertex="1" parent="1">
          <mxGeometry x="550" y="820" width="120" height="80" as="geometry" />
        </mxCell>
        <mxCell id="YXdTX77VMhVec7Iuwk8Y-26" style="edgeStyle=orthogonalEdgeStyle;rounded=0;orthogonalLoop=1;jettySize=auto;html=1;exitX=1;exitY=0.5;exitDx=0;exitDy=0;entryX=0;entryY=0.5;entryDx=0;entryDy=0;" edge="1" parent="1" source="YXdTX77VMhVec7Iuwk8Y-27" target="YXdTX77VMhVec7Iuwk8Y-24">
          <mxGeometry relative="1" as="geometry" />
        </mxCell>
        <mxCell id="YXdTX77VMhVec7Iuwk8Y-27" value="PENDING" style="ellipse;whiteSpace=wrap;html=1;" vertex="1" parent="1">
          <mxGeometry x="320" y="660" width="120" height="80" as="geometry" />
        </mxCell>
        <mxCell id="YXdTX77VMhVec7Iuwk8Y-28" value="" style="endArrow=classic;html=1;rounded=0;exitX=1;exitY=0.5;exitDx=0;exitDy=0;entryX=0;entryY=0.5;entryDx=0;entryDy=0;" edge="1" parent="1" source="YXdTX77VMhVec7Iuwk8Y-22" target="YXdTX77VMhVec7Iuwk8Y-27">
          <mxGeometry width="50" height="50" relative="1" as="geometry">
            <mxPoint x="350" y="750" as="sourcePoint" />
            <mxPoint x="400" y="700" as="targetPoint" />
          </mxGeometry>
        </mxCell>
        <mxCell id="YXdTX77VMhVec7Iuwk8Y-29" value="Initiated" style="text;html=1;align=center;verticalAlign=middle;resizable=0;points=[];autosize=1;strokeColor=none;fillColor=none;" vertex="1" parent="1">
          <mxGeometry x="220" y="678" width="70" height="30" as="geometry" />
        </mxCell>
        <mxCell id="YXdTX77VMhVec7Iuwk8Y-30" value="Complete" style="text;html=1;align=center;verticalAlign=middle;resizable=0;points=[];autosize=1;strokeColor=none;fillColor=none;" vertex="1" parent="1">
          <mxGeometry x="450" y="678" width="70" height="30" as="geometry" />
        </mxCell>
        <mxCell id="YXdTX77VMhVec7Iuwk8Y-31" value="" style="endArrow=classic;html=1;rounded=0;entryX=0;entryY=0.5;entryDx=0;entryDy=0;exitX=1;exitY=0;exitDx=0;exitDy=0;" edge="1" parent="1" source="YXdTX77VMhVec7Iuwk8Y-27" target="YXdTX77VMhVec7Iuwk8Y-23">
          <mxGeometry width="50" height="50" relative="1" as="geometry">
            <mxPoint x="350" y="750" as="sourcePoint" />
            <mxPoint x="400" y="700" as="targetPoint" />
          </mxGeometry>
        </mxCell>
        <mxCell id="YXdTX77VMhVec7Iuwk8Y-33" value="rollback" style="text;html=1;align=center;verticalAlign=middle;resizable=0;points=[];autosize=1;strokeColor=none;fillColor=none;" vertex="1" parent="1">
          <mxGeometry x="455" y="590" width="60" height="30" as="geometry" />
        </mxCell>
        <mxCell id="YXdTX77VMhVec7Iuwk8Y-34" value="rollback" style="text;html=1;align=center;verticalAlign=middle;resizable=0;points=[];autosize=1;strokeColor=none;fillColor=none;" vertex="1" parent="1">
          <mxGeometry x="465" y="780" width="60" height="30" as="geometry" />
        </mxCell>
        <mxCell id="YXdTX77VMhVec7Iuwk8Y-35" value="" style="curved=1;endArrow=classic;html=1;rounded=0;exitX=0;exitY=0;exitDx=0;exitDy=0;" edge="1" parent="1" source="YXdTX77VMhVec7Iuwk8Y-27">
          <mxGeometry width="50" height="50" relative="1" as="geometry">
            <mxPoint x="350" y="750" as="sourcePoint" />
            <mxPoint x="400" y="660" as="targetPoint" />
            <Array as="points">
              <mxPoint x="280" y="630" />
              <mxPoint x="280" y="550" />
              <mxPoint x="510" y="560" />
            </Array>
          </mxGeometry>
        </mxCell>
        <mxCell id="YXdTX77VMhVec7Iuwk8Y-36" value="Processing" style="text;html=1;align=center;verticalAlign=middle;resizable=0;points=[];autosize=1;strokeColor=none;fillColor=none;" vertex="1" parent="1">
          <mxGeometry x="260" y="630" width="80" height="30" as="geometry" />
        </mxCell>
        <mxCell id="YXdTX77VMhVec7Iuwk8Y-38" value="Transaction Event Action" style="text;html=1;strokeColor=none;fillColor=none;align=center;verticalAlign=middle;whiteSpace=wrap;rounded=0;" vertex="1" parent="1">
          <mxGeometry x="30" y="510" width="60" height="30" as="geometry" />
        </mxCell>
        <mxCell id="YXdTX77VMhVec7Iuwk8Y-39" value="&lt;h1 style=&quot;font-size: 12px;&quot;&gt;Intiated Action&lt;/h1&gt;&lt;div&gt;Verifying Authenticated user&lt;/div&gt;&lt;div&gt;initiated&lt;/div&gt;&lt;div&gt;checking fromUser and toUser exist&lt;br&gt;&lt;/div&gt;&lt;div&gt;auth user same as fromUser&lt;/div&gt;&lt;div&gt;save Transaction with Id&lt;/div&gt;&lt;div&gt;raise TrasactionEvent with Process&lt;/div&gt;" style="text;html=1;strokeColor=none;fillColor=none;spacing=5;spacingTop=-20;whiteSpace=wrap;overflow=hidden;rounded=0;fontSize=12;" vertex="1" parent="1">
          <mxGeometry x="200" y="720" width="140" height="170" as="geometry" />
        </mxCell>
        <mxCell id="YXdTX77VMhVec7Iuwk8Y-43" value="&lt;h1 style=&quot;font-size: 12px;&quot;&gt;Process Action&lt;/h1&gt;&lt;div&gt;&lt;div&gt;change Transaction from NEW to PENDING and save it.&lt;/div&gt;&lt;div&gt;raise TransactionEvent&lt;span style=&quot;background-color: initial;&quot;&gt;&amp;nbsp;with transfer.&lt;/span&gt;&lt;/div&gt;&lt;div&gt;If WalletEvent with Success&lt;/div&gt;&lt;div&gt;&lt;span style=&quot;background-color: initial;&quot;&gt;&lt;span style=&quot;white-space: pre;&quot;&gt;&#x9;&lt;/span&gt;&amp;gt;&amp;nbsp; raise&lt;/span&gt;&lt;span style=&quot;background-color: initial;&quot;&gt;&amp;nbsp;TransactionEvent with Success&lt;/span&gt;&lt;/div&gt;&lt;div&gt;&lt;span style=&quot;white-space: pre;&quot;&gt;&#x9;&lt;/span&gt;&amp;gt; Listen TransactionEvent with Cancel and Transaction PENDING, Raise revert&lt;br&gt;&lt;/div&gt;&lt;div&gt;If Not&lt;/div&gt;&lt;div&gt;&amp;nbsp; &amp;nbsp; &amp;gt;raise TrasactionEvent with rollback&lt;/div&gt;&lt;/div&gt;" style="text;html=1;strokeColor=none;fillColor=none;spacing=5;spacingTop=-20;whiteSpace=wrap;overflow=hidden;rounded=0;fontSize=12;" vertex="1" parent="1">
          <mxGeometry x="260" y="420" width="230" height="180.5" as="geometry" />
        </mxCell>
        <mxCell id="YXdTX77VMhVec7Iuwk8Y-44" value="&lt;h1 style=&quot;font-size: 12px;&quot;&gt;Rollback Action&lt;/h1&gt;&lt;div&gt;&lt;div&gt;change Transaction from PENDING to FAILED and save it.&lt;/div&gt;&lt;div&gt;raise NotificationEvent transaction FAILED.&lt;/div&gt;&lt;/div&gt;" style="text;html=1;strokeColor=none;fillColor=none;spacing=5;spacingTop=-20;whiteSpace=wrap;overflow=hidden;rounded=0;fontSize=12;" vertex="1" parent="1">
          <mxGeometry x="670" y="490" width="150" height="100" as="geometry" />
        </mxCell>
        <mxCell id="YXdTX77VMhVec7Iuwk8Y-45" value="&lt;h1 style=&quot;font-size: 12px;&quot;&gt;Success Action&lt;/h1&gt;&lt;div&gt;&lt;div&gt;change Transaction from PENDING to SUCCESS and save it.&lt;/div&gt;&lt;div&gt;raise NotificationEvent transaction SUCCESS.&lt;/div&gt;&lt;/div&gt;" style="text;html=1;strokeColor=none;fillColor=none;spacing=5;spacingTop=-20;whiteSpace=wrap;overflow=hidden;rounded=0;fontSize=12;" vertex="1" parent="1">
          <mxGeometry x="670" y="650" width="150" height="100" as="geometry" />
        </mxCell>
        <mxCell id="YXdTX77VMhVec7Iuwk8Y-47" value="&lt;h1 style=&quot;font-size: 12px;&quot;&gt;Rollback Action&lt;/h1&gt;&lt;div&gt;&lt;div&gt;change Transaction from PENDING to CANCELLED and save it.&lt;/div&gt;&lt;div&gt;raise NotificationEvent transaction CANCELLED.&lt;/div&gt;&lt;/div&gt;" style="text;html=1;strokeColor=none;fillColor=none;spacing=5;spacingTop=-20;whiteSpace=wrap;overflow=hidden;rounded=0;fontSize=12;" vertex="1" parent="1">
          <mxGeometry x="670" y="810" width="150" height="100" as="geometry" />
        </mxCell>
        <mxCell id="YXdTX77VMhVec7Iuwk8Y-48" value="WalletService" style="ellipse;whiteSpace=wrap;html=1;" vertex="1" parent="1">
          <mxGeometry x="320" y="1000" width="120" height="80" as="geometry" />
        </mxCell>
        <mxCell id="YXdTX77VMhVec7Iuwk8Y-49" value="" style="curved=1;endArrow=classic;html=1;rounded=0;exitX=0;exitY=0;exitDx=0;exitDy=0;entryX=1;entryY=0;entryDx=0;entryDy=0;" edge="1" parent="1" source="YXdTX77VMhVec7Iuwk8Y-48" target="YXdTX77VMhVec7Iuwk8Y-48">
          <mxGeometry width="50" height="50" relative="1" as="geometry">
            <mxPoint x="400" y="970" as="sourcePoint" />
            <mxPoint x="450" y="920" as="targetPoint" />
            <Array as="points">
              <mxPoint x="300" y="940" />
              <mxPoint x="370" y="900" />
              <mxPoint x="450" y="920" />
            </Array>
          </mxGeometry>
        </mxCell>
        <mxCell id="YXdTX77VMhVec7Iuwk8Y-50" value="&lt;h1 style=&quot;font-size: 12px;&quot;&gt;Wallet Action&lt;/h1&gt;&lt;div&gt;Listen TransactionEvent with transer.&lt;/div&gt;&lt;div&gt;&amp;gt;check sufficient balance -&amp;gt; Process the updating amount.&lt;/div&gt;&lt;div&gt;&amp;gt; not sufficient -&amp;gt; raise&lt;span style=&quot;background-color: initial;&quot;&gt;&amp;nbsp;TrasactionEvent with Failure.&lt;/span&gt;&lt;/div&gt;" style="text;html=1;strokeColor=none;fillColor=none;spacing=5;spacingTop=-20;whiteSpace=wrap;overflow=hidden;rounded=0;fontSize=12;" vertex="1" parent="1">
          <mxGeometry x="440" y="920" width="140" height="140" as="geometry" />
        </mxCell>
        <mxCell id="YXdTX77VMhVec7Iuwk8Y-51" value="" style="endArrow=none;html=1;rounded=0;" edge="1" parent="1">
          <mxGeometry width="50" height="50" relative="1" as="geometry">
            <mxPoint x="10" y="1160" as="sourcePoint" />
            <mxPoint x="840" y="1160" as="targetPoint" />
          </mxGeometry>
        </mxCell>
        <mxCell id="YXdTX77VMhVec7Iuwk8Y-52" value="" style="endArrow=none;dashed=1;html=1;dashPattern=1 3;strokeWidth=2;rounded=0;" edge="1" parent="1">
          <mxGeometry width="50" height="50" relative="1" as="geometry">
            <mxPoint x="19" y="1480" as="sourcePoint" />
            <mxPoint x="18.89" y="1160" as="targetPoint" />
          </mxGeometry>
        </mxCell>
        <mxCell id="YXdTX77VMhVec7Iuwk8Y-53" value="" style="endArrow=none;dashed=1;html=1;dashPattern=1 3;strokeWidth=2;rounded=0;" edge="1" parent="1">
          <mxGeometry width="50" height="50" relative="1" as="geometry">
            <mxPoint x="120" y="1480" as="sourcePoint" />
            <mxPoint x="120" y="1160" as="targetPoint" />
          </mxGeometry>
        </mxCell>
        <mxCell id="YXdTX77VMhVec7Iuwk8Y-54" value="" style="endArrow=none;dashed=1;html=1;dashPattern=1 3;strokeWidth=2;rounded=0;" edge="1" parent="1">
          <mxGeometry width="50" height="50" relative="1" as="geometry">
            <mxPoint x="220" y="1480" as="sourcePoint" />
            <mxPoint x="220" y="1160" as="targetPoint" />
          </mxGeometry>
        </mxCell>
        <mxCell id="YXdTX77VMhVec7Iuwk8Y-55" value="" style="endArrow=none;dashed=1;html=1;dashPattern=1 3;strokeWidth=2;rounded=0;" edge="1" parent="1">
          <mxGeometry width="50" height="50" relative="1" as="geometry">
            <mxPoint x="319" y="1480" as="sourcePoint" />
            <mxPoint x="318.89" y="1160" as="targetPoint" />
          </mxGeometry>
        </mxCell>
        <mxCell id="YXdTX77VMhVec7Iuwk8Y-57" value="" style="endArrow=none;dashed=1;html=1;dashPattern=1 3;strokeWidth=2;rounded=0;" edge="1" parent="1">
          <mxGeometry width="50" height="50" relative="1" as="geometry">
            <mxPoint x="419" y="1480" as="sourcePoint" />
            <mxPoint x="419.44" y="1160" as="targetPoint" />
          </mxGeometry>
        </mxCell>
        <mxCell id="YXdTX77VMhVec7Iuwk8Y-58" value="" style="endArrow=classic;html=1;rounded=0;" edge="1" parent="1">
          <mxGeometry width="50" height="50" relative="1" as="geometry">
            <mxPoint x="20" y="1180" as="sourcePoint" />
            <mxPoint x="120" y="1180" as="targetPoint" />
          </mxGeometry>
        </mxCell>
        <mxCell id="YXdTX77VMhVec7Iuwk8Y-59" value="Verifying User" style="text;html=1;align=center;verticalAlign=middle;resizable=0;points=[];autosize=1;strokeColor=none;fillColor=none;" vertex="1" parent="1">
          <mxGeometry x="15" y="1160" width="100" height="30" as="geometry" />
        </mxCell>
        <mxCell id="YXdTX77VMhVec7Iuwk8Y-64" value="" style="endArrow=classic;html=1;rounded=0;" edge="1" parent="1">
          <mxGeometry width="50" height="50" relative="1" as="geometry">
            <mxPoint x="20" y="1230" as="sourcePoint" />
            <mxPoint x="220" y="1230" as="targetPoint" />
          </mxGeometry>
        </mxCell>
        <mxCell id="YXdTX77VMhVec7Iuwk8Y-65" value="Txn Transfer" style="text;html=1;align=center;verticalAlign=middle;resizable=0;points=[];autosize=1;strokeColor=none;fillColor=none;" vertex="1" parent="1">
          <mxGeometry x="125" y="1223" width="90" height="30" as="geometry" />
        </mxCell>
        <mxCell id="YXdTX77VMhVec7Iuwk8Y-67" value="" style="endArrow=classic;html=1;rounded=0;" edge="1" parent="1">
          <mxGeometry width="50" height="50" relative="1" as="geometry">
            <mxPoint x="120" y="1199" as="sourcePoint" />
            <mxPoint x="20" y="1199" as="targetPoint" />
          </mxGeometry>
        </mxCell>
        <mxCell id="YXdTX77VMhVec7Iuwk8Y-70" value="Verified User" style="text;html=1;align=center;verticalAlign=middle;resizable=0;points=[];autosize=1;strokeColor=none;fillColor=none;" vertex="1" parent="1">
          <mxGeometry x="30" y="1180" width="90" height="30" as="geometry" />
        </mxCell>
        <mxCell id="YXdTX77VMhVec7Iuwk8Y-71" value="" style="endArrow=classic;html=1;rounded=0;" edge="1" parent="1">
          <mxGeometry width="50" height="50" relative="1" as="geometry">
            <mxPoint x="220" y="1240" as="sourcePoint" />
            <mxPoint x="320" y="1240" as="targetPoint" />
          </mxGeometry>
        </mxCell>
        <mxCell id="YXdTX77VMhVec7Iuwk8Y-72" value="Wallet Process" style="text;html=1;align=center;verticalAlign=middle;resizable=0;points=[];autosize=1;strokeColor=none;fillColor=none;" vertex="1" parent="1">
          <mxGeometry x="220" y="1231" width="100" height="30" as="geometry" />
        </mxCell>
        <mxCell id="YXdTX77VMhVec7Iuwk8Y-73" value="" style="endArrow=classic;html=1;rounded=0;" edge="1" parent="1">
          <mxGeometry width="50" height="50" relative="1" as="geometry">
            <mxPoint x="320" y="1260" as="sourcePoint" />
            <mxPoint x="220" y="1259" as="targetPoint" />
          </mxGeometry>
        </mxCell>
        <mxCell id="YXdTX77VMhVec7Iuwk8Y-74" value="Wallet&lt;br&gt;Success/Failure" style="text;html=1;align=center;verticalAlign=middle;resizable=0;points=[];autosize=1;strokeColor=none;fillColor=none;" vertex="1" parent="1">
          <mxGeometry x="213" y="1253" width="110" height="40" as="geometry" />
        </mxCell>
        <mxCell id="YXdTX77VMhVec7Iuwk8Y-75" value="" style="endArrow=classic;html=1;rounded=0;" edge="1" parent="1">
          <mxGeometry width="50" height="50" relative="1" as="geometry">
            <mxPoint x="220" y="1292" as="sourcePoint" />
            <mxPoint x="420" y="1292" as="targetPoint" />
          </mxGeometry>
        </mxCell>
        <mxCell id="YXdTX77VMhVec7Iuwk8Y-76" value="Success&amp;gt;Txn Success&amp;nbsp;" style="text;html=1;align=center;verticalAlign=middle;resizable=0;points=[];autosize=1;strokeColor=none;fillColor=none;" vertex="1" parent="1">
          <mxGeometry x="290" y="1284" width="150" height="30" as="geometry" />
        </mxCell>
        <mxCell id="YXdTX77VMhVec7Iuwk8Y-78" value="" style="endArrow=classic;html=1;rounded=0;" edge="1" parent="1">
          <mxGeometry width="50" height="50" relative="1" as="geometry">
            <mxPoint x="220" y="1342" as="sourcePoint" />
            <mxPoint x="520" y="1342" as="targetPoint" />
          </mxGeometry>
        </mxCell>
        <mxCell id="YXdTX77VMhVec7Iuwk8Y-79" value="Failure&amp;gt;Txn Rollback&amp;nbsp;" style="text;html=1;align=center;verticalAlign=middle;resizable=0;points=[];autosize=1;strokeColor=none;fillColor=none;" vertex="1" parent="1">
          <mxGeometry x="400" y="1334" width="140" height="30" as="geometry" />
        </mxCell>
        <mxCell id="YXdTX77VMhVec7Iuwk8Y-80" value="" style="endArrow=none;dashed=1;html=1;dashPattern=1 3;strokeWidth=2;rounded=0;" edge="1" parent="1">
          <mxGeometry width="50" height="50" relative="1" as="geometry">
            <mxPoint x="520" y="1480" as="sourcePoint" />
            <mxPoint x="521" y="1156.5" as="targetPoint" />
          </mxGeometry>
        </mxCell>
        <mxCell id="YXdTX77VMhVec7Iuwk8Y-82" value="" style="endArrow=none;dashed=1;html=1;dashPattern=1 3;strokeWidth=2;rounded=0;" edge="1" parent="1">
          <mxGeometry width="50" height="50" relative="1" as="geometry">
            <mxPoint x="620" y="1480" as="sourcePoint" />
            <mxPoint x="620" y="1160" as="targetPoint" />
          </mxGeometry>
        </mxCell>
        <mxCell id="YXdTX77VMhVec7Iuwk8Y-83" value="" style="endArrow=classic;html=1;rounded=0;" edge="1" parent="1">
          <mxGeometry width="50" height="50" relative="1" as="geometry">
            <mxPoint x="420" y="1300" as="sourcePoint" />
            <mxPoint x="720" y="1300" as="targetPoint" />
          </mxGeometry>
        </mxCell>
        <mxCell id="YXdTX77VMhVec7Iuwk8Y-84" value="Notify&amp;gt; Success&amp;nbsp;" style="text;html=1;align=center;verticalAlign=middle;resizable=0;points=[];autosize=1;strokeColor=none;fillColor=none;" vertex="1" parent="1">
          <mxGeometry x="620" y="1293" width="110" height="30" as="geometry" />
        </mxCell>
        <mxCell id="YXdTX77VMhVec7Iuwk8Y-85" value="" style="endArrow=classic;html=1;rounded=0;" edge="1" parent="1">
          <mxGeometry width="50" height="50" relative="1" as="geometry">
            <mxPoint x="520" y="1347.5" as="sourcePoint" />
            <mxPoint x="720" y="1348" as="targetPoint" />
          </mxGeometry>
        </mxCell>
        <mxCell id="YXdTX77VMhVec7Iuwk8Y-86" value="Notify&amp;gt; Failed" style="text;html=1;align=center;verticalAlign=middle;resizable=0;points=[];autosize=1;strokeColor=none;fillColor=none;" vertex="1" parent="1">
          <mxGeometry x="620" y="1340" width="100" height="30" as="geometry" />
        </mxCell>
        <mxCell id="YXdTX77VMhVec7Iuwk8Y-87" value="" style="endArrow=classic;html=1;rounded=0;" edge="1" parent="1">
          <mxGeometry width="50" height="50" relative="1" as="geometry">
            <mxPoint x="520" y="1373" as="sourcePoint" />
            <mxPoint x="220" y="1373" as="targetPoint" />
          </mxGeometry>
        </mxCell>
        <mxCell id="YXdTX77VMhVec7Iuwk8Y-88" value="Rollback&amp;gt;Txn Complete&amp;nbsp;" style="text;html=1;align=center;verticalAlign=middle;resizable=0;points=[];autosize=1;strokeColor=none;fillColor=none;" vertex="1" parent="1">
          <mxGeometry x="390" y="1366" width="150" height="30" as="geometry" />
        </mxCell>
        <mxCell id="YXdTX77VMhVec7Iuwk8Y-89" value="" style="endArrow=classic;html=1;rounded=0;" edge="1" parent="1">
          <mxGeometry width="50" height="50" relative="1" as="geometry">
            <mxPoint x="420" y="1315" as="sourcePoint" />
            <mxPoint x="220" y="1315" as="targetPoint" />
          </mxGeometry>
        </mxCell>
        <mxCell id="YXdTX77VMhVec7Iuwk8Y-90" value="Success&amp;gt;Txn Complete&amp;nbsp;" style="text;html=1;align=center;verticalAlign=middle;resizable=0;points=[];autosize=1;strokeColor=none;fillColor=none;" vertex="1" parent="1">
          <mxGeometry x="290" y="1306" width="150" height="30" as="geometry" />
        </mxCell>
        <mxCell id="YXdTX77VMhVec7Iuwk8Y-91" value="verfiy user" style="text;html=1;align=center;verticalAlign=middle;resizable=0;points=[];autosize=1;strokeColor=none;fillColor=none;" vertex="1" parent="1">
          <mxGeometry x="35" y="1130" width="80" height="30" as="geometry" />
        </mxCell>
        <mxCell id="YXdTX77VMhVec7Iuwk8Y-92" value="transfer" style="text;html=1;align=center;verticalAlign=middle;resizable=0;points=[];autosize=1;strokeColor=none;fillColor=none;" vertex="1" parent="1">
          <mxGeometry x="140" y="1130" width="60" height="30" as="geometry" />
        </mxCell>
        <mxCell id="YXdTX77VMhVec7Iuwk8Y-93" value="update wallet" style="text;html=1;align=center;verticalAlign=middle;resizable=0;points=[];autosize=1;strokeColor=none;fillColor=none;" vertex="1" parent="1">
          <mxGeometry x="225" y="1130" width="90" height="30" as="geometry" />
        </mxCell>
        <mxCell id="YXdTX77VMhVec7Iuwk8Y-94" value="notify" style="text;html=1;align=center;verticalAlign=middle;resizable=0;points=[];autosize=1;strokeColor=none;fillColor=none;" vertex="1" parent="1">
          <mxGeometry x="640" y="1130" width="50" height="30" as="geometry" />
        </mxCell>
        <mxCell id="YXdTX77VMhVec7Iuwk8Y-95" value="success" style="text;html=1;align=center;verticalAlign=middle;resizable=0;points=[];autosize=1;strokeColor=none;fillColor=none;" vertex="1" parent="1">
          <mxGeometry x="330" y="1130" width="70" height="30" as="geometry" />
        </mxCell>
        <mxCell id="YXdTX77VMhVec7Iuwk8Y-97" value="" style="endArrow=none;dashed=1;html=1;dashPattern=1 3;strokeWidth=2;rounded=0;entryX=0;entryY=0.5;entryDx=0;entryDy=0;exitX=1;exitY=1;exitDx=0;exitDy=0;" edge="1" parent="1" source="YXdTX77VMhVec7Iuwk8Y-27" target="YXdTX77VMhVec7Iuwk8Y-25">
          <mxGeometry width="50" height="50" relative="1" as="geometry">
            <mxPoint x="380" y="710" as="sourcePoint" />
            <mxPoint x="430" y="660" as="targetPoint" />
          </mxGeometry>
        </mxCell>
        <mxCell id="YXdTX77VMhVec7Iuwk8Y-98" value="" style="endArrow=none;dashed=1;html=1;dashPattern=1 3;strokeWidth=2;rounded=0;entryX=0;entryY=0;entryDx=0;entryDy=0;exitX=1;exitY=1;exitDx=0;exitDy=0;" edge="1" parent="1" source="YXdTX77VMhVec7Iuwk8Y-6" target="YXdTX77VMhVec7Iuwk8Y-4">
          <mxGeometry width="50" height="50" relative="1" as="geometry">
            <mxPoint x="380" y="230" as="sourcePoint" />
            <mxPoint x="430" y="180" as="targetPoint" />
          </mxGeometry>
        </mxCell>
        <mxCell id="YXdTX77VMhVec7Iuwk8Y-99" value="Verified&amp;gt;true" style="text;html=1;align=center;verticalAlign=middle;resizable=0;points=[];autosize=1;strokeColor=none;fillColor=none;" vertex="1" parent="1">
          <mxGeometry x="35" y="1223" width="90" height="30" as="geometry" />
        </mxCell>
        <mxCell id="YXdTX77VMhVec7Iuwk8Y-100" value="" style="endArrow=classic;html=1;rounded=0;" edge="1" parent="1">
          <mxGeometry width="50" height="50" relative="1" as="geometry">
            <mxPoint x="20" y="1400.75" as="sourcePoint" />
            <mxPoint x="220" y="1400.75" as="targetPoint" />
          </mxGeometry>
        </mxCell>
        <mxCell id="YXdTX77VMhVec7Iuwk8Y-101" value="Txn Cancelled" style="text;html=1;align=center;verticalAlign=middle;resizable=0;points=[];autosize=1;strokeColor=none;fillColor=none;" vertex="1" parent="1">
          <mxGeometry x="115" y="1396" width="100" height="30" as="geometry" />
        </mxCell>
        <mxCell id="YXdTX77VMhVec7Iuwk8Y-102" value="Verified&amp;gt;false" style="text;html=1;align=center;verticalAlign=middle;resizable=0;points=[];autosize=1;strokeColor=none;fillColor=none;" vertex="1" parent="1">
          <mxGeometry x="25" y="1396" width="100" height="30" as="geometry" />
        </mxCell>
        <mxCell id="YXdTX77VMhVec7Iuwk8Y-103" value="" style="endArrow=classic;html=1;rounded=0;" edge="1" parent="1">
          <mxGeometry width="50" height="50" relative="1" as="geometry">
            <mxPoint x="220" y="1410" as="sourcePoint" />
            <mxPoint x="620" y="1410" as="targetPoint" />
          </mxGeometry>
        </mxCell>
        <mxCell id="YXdTX77VMhVec7Iuwk8Y-104" value="rollback" style="text;html=1;align=center;verticalAlign=middle;resizable=0;points=[];autosize=1;strokeColor=none;fillColor=none;" vertex="1" parent="1">
          <mxGeometry x="430" y="1130" width="60" height="30" as="geometry" />
        </mxCell>
        <mxCell id="YXdTX77VMhVec7Iuwk8Y-105" value="" style="endArrow=none;dashed=1;html=1;dashPattern=1 3;strokeWidth=2;rounded=0;" edge="1" parent="1">
          <mxGeometry width="50" height="50" relative="1" as="geometry">
            <mxPoint x="720" y="1480" as="sourcePoint" />
            <mxPoint x="720.44" y="1153" as="targetPoint" />
          </mxGeometry>
        </mxCell>
        <mxCell id="YXdTX77VMhVec7Iuwk8Y-111" value="cancelled" style="text;html=1;align=center;verticalAlign=middle;resizable=0;points=[];autosize=1;strokeColor=none;fillColor=none;" vertex="1" parent="1">
          <mxGeometry x="535" y="1130" width="70" height="30" as="geometry" />
        </mxCell>
        <mxCell id="YXdTX77VMhVec7Iuwk8Y-112" value="" style="endArrow=classic;html=1;rounded=0;" edge="1" parent="1">
          <mxGeometry width="50" height="50" relative="1" as="geometry">
            <mxPoint x="620" y="1440" as="sourcePoint" />
            <mxPoint x="220" y="1440" as="targetPoint" />
          </mxGeometry>
        </mxCell>
        <mxCell id="YXdTX77VMhVec7Iuwk8Y-113" value="Cancelled&amp;gt;Txn Complete" style="text;html=1;align=center;verticalAlign=middle;resizable=0;points=[];autosize=1;strokeColor=none;fillColor=none;" vertex="1" parent="1">
          <mxGeometry x="490" y="1432" width="160" height="30" as="geometry" />
        </mxCell>
        <mxCell id="YXdTX77VMhVec7Iuwk8Y-114" value="Notify&amp;gt; Cancelled&amp;nbsp;" style="text;html=1;align=center;verticalAlign=middle;resizable=0;points=[];autosize=1;strokeColor=none;fillColor=none;" vertex="1" parent="1">
          <mxGeometry x="615" y="1413" width="120" height="30" as="geometry" />
        </mxCell>
        <mxCell id="YXdTX77VMhVec7Iuwk8Y-116" value="" style="endArrow=classic;html=1;rounded=0;" edge="1" parent="1">
          <mxGeometry width="50" height="50" relative="1" as="geometry">
            <mxPoint x="620" y="1420" as="sourcePoint" />
            <mxPoint x="720" y="1420" as="targetPoint" />
          </mxGeometry>
        </mxCell>
        <mxCell id="YXdTX77VMhVec7Iuwk8Y-124" value="&lt;h1 style=&quot;font-size: 12px;&quot;&gt;User&lt;/h1&gt;&lt;div&gt;Publish&lt;/div&gt;&lt;div&gt;&amp;gt;create wallet&lt;/div&gt;&lt;div&gt;&amp;gt;notify created user&lt;/div&gt;&lt;div&gt;&amp;gt;notify created wallet&lt;/div&gt;&lt;div&gt;&amp;gt;user exist status&lt;/div&gt;&lt;div&gt;Listen&lt;/div&gt;&lt;div&gt;&amp;gt;check user exist&lt;/div&gt;&lt;div&gt;&amp;gt;create wallet status: success/failure&lt;/div&gt;&lt;div&gt;&amp;gt;send email&lt;/div&gt;" style="text;html=1;strokeColor=none;fillColor=none;spacing=5;spacingTop=-20;whiteSpace=wrap;overflow=hidden;rounded=0;fontSize=12;" vertex="1" parent="1">
          <mxGeometry x="20" y="1520" width="140" height="170" as="geometry" />
        </mxCell>
        <mxCell id="YXdTX77VMhVec7Iuwk8Y-125" value="&lt;h1 style=&quot;font-size: 12px;&quot;&gt;Txn&lt;/h1&gt;&lt;div&gt;Publish&lt;/div&gt;&lt;div&gt;&amp;gt;check user exist&lt;/div&gt;&lt;div&gt;&amp;gt;update wallet&lt;/div&gt;&lt;div&gt;&amp;gt;notify success&lt;/div&gt;&lt;div&gt;&lt;span style=&quot;background-color: initial;&quot;&gt;&amp;gt;notify failed&lt;/span&gt;&lt;/div&gt;&lt;div&gt;&lt;span style=&quot;background-color: initial;&quot;&gt;&amp;gt;notify cancelled&lt;/span&gt;&lt;/div&gt;&lt;div&gt;&lt;span style=&quot;background-color: initial;&quot;&gt;Listen&lt;/span&gt;&lt;/div&gt;&lt;div&gt;&amp;gt;update wallet status: success/failure&lt;/div&gt;&lt;div&gt;&amp;gt;user exist status: true/false&lt;/div&gt;" style="text;html=1;strokeColor=none;fillColor=none;spacing=5;spacingTop=-20;whiteSpace=wrap;overflow=hidden;rounded=0;fontSize=12;" vertex="1" parent="1">
          <mxGeometry x="200" y="1520" width="160" height="170" as="geometry" />
        </mxCell>
        <mxCell id="YXdTX77VMhVec7Iuwk8Y-126" value="&lt;h1 style=&quot;font-size: 12px;&quot;&gt;Wallet&lt;/h1&gt;&lt;div&gt;Publish&lt;/div&gt;&lt;div&gt;&amp;gt;update wallet status: success/failure&lt;/div&gt;&lt;div&gt;&lt;span style=&quot;background-color: initial;&quot;&gt;&amp;gt;create wallet status: success/failure&lt;/span&gt;&lt;/div&gt;&lt;div&gt;&lt;span style=&quot;background-color: initial;&quot;&gt;Listen&lt;/span&gt;&lt;br&gt;&lt;/div&gt;&lt;div&gt;&lt;span style=&quot;background-color: initial;&quot;&gt;&amp;gt;create wallet&lt;/span&gt;&lt;/div&gt;&lt;div&gt;&amp;gt;update wallet&lt;/div&gt;" style="text;html=1;strokeColor=none;fillColor=none;spacing=5;spacingTop=-20;whiteSpace=wrap;overflow=hidden;rounded=0;fontSize=12;" vertex="1" parent="1">
          <mxGeometry x="417.5" y="1520" width="155" height="160" as="geometry" />
        </mxCell>
        <mxCell id="YXdTX77VMhVec7Iuwk8Y-127" value="&lt;h1 style=&quot;font-size: 12px;&quot;&gt;Notify&lt;/h1&gt;&lt;div&gt;Publish&lt;/div&gt;&lt;div&gt;&amp;gt;send email: respective notification&lt;/div&gt;&lt;div&gt;&lt;span style=&quot;background-color: initial;&quot;&gt;Listen&lt;/span&gt;&lt;/div&gt;&lt;div&gt;&lt;span style=&quot;background-color: initial;&quot;&gt;&amp;gt;notify created user&lt;/span&gt;&lt;/div&gt;&lt;div&gt;&lt;span style=&quot;background-color: initial;&quot;&gt;&amp;gt;notify created wallet&lt;/span&gt;&lt;/div&gt;&amp;gt;notify success&lt;br&gt;&amp;gt;notify failed&lt;br&gt;&lt;div&gt;&lt;span style=&quot;background-color: initial;&quot;&gt;&amp;gt;notify cancelled&lt;/span&gt;&lt;/div&gt;" style="text;html=1;strokeColor=none;fillColor=none;spacing=5;spacingTop=-20;whiteSpace=wrap;overflow=hidden;rounded=0;fontSize=12;" vertex="1" parent="1">
          <mxGeometry x="597.5" y="1520" width="155" height="160" as="geometry" />
        </mxCell>
        <mxCell id="YXdTX77VMhVec7Iuwk8Y-128" value="&lt;b&gt;Kafka Producer/Consumer&lt;/b&gt;" style="text;html=1;align=center;verticalAlign=middle;resizable=0;points=[];autosize=1;strokeColor=none;fillColor=none;" vertex="1" parent="1">
          <mxGeometry x="15" y="1490" width="170" height="30" as="geometry" />
        </mxCell>
      </root>
    </mxGraphModel>
  </diagram>
</mxfile>
